<?xml version="1.0" encoding="us-ascii" standalone="no"?><svg xmlns="http://www.w3.org/2000/svg" xmlns:xlink="http://www.w3.org/1999/xlink" contentStyleType="text/css" height="2006px" preserveAspectRatio="none" style="width:1647px;height:2006px;background:#FFFFFF;" version="1.1" viewBox="0 0 1647 2006" width="1647px" zoomAndPan="magnify"><defs/><g><rect fill="#FFFFFF" height="31.706" style="stroke:#000000;stroke-width:1.0;" width="10" x="149.5" y="118.7739"/><rect fill="#FFFFFF" height="1761.5443" style="stroke:#000000;stroke-width:1.0;" width="10" x="363.5" y="150.4799"/><rect fill="#FFFFFF" height="95.118" style="stroke:#000000;stroke-width:1.0;" width="10" x="585.5" y="226.892"/><rect fill="#FFFFFF" height="75.7739" style="stroke:#000000;stroke-width:1.0;" width="10" x="719.5" y="398.4221"/><rect fill="#FFFFFF" height="63.412" style="stroke:#000000;stroke-width:1.0;" width="10" x="719.5" y="505.902"/><rect fill="#FFFFFF" height="37.706" style="stroke:#000000;stroke-width:1.0;" width="10" x="848.5" y="733.8619"/><rect fill="#FFFFFF" height="203.5301" style="stroke:#000000;stroke-width:1.0;" width="10" x="848.5" y="810.2739"/><rect fill="#FFFFFF" height="730.6902" style="stroke:#000000;stroke-width:1.0;" width="10" x="848.5" y="1174.3341"/><rect fill="#FFFFFF" height="37.706" style="stroke:#000000;stroke-width:1.0;" width="10" x="1085.5" y="976.098"/><rect fill="#FFFFFF" height="37.706" style="stroke:#000000;stroke-width:1.0;" width="10" x="1085.5" y="1572.3943"/><rect fill="#FFFFFF" height="859.5143" style="stroke:#000000;stroke-width:1.0;" width="10" x="1184" y="1052.51"/><rect fill="#FFFFFF" height="121.118" style="stroke:#000000;stroke-width:1.0;" width="10" x="1275" y="1323.1582"/><rect fill="#FFFFFF" height="58.706" style="stroke:#000000;stroke-width:1.0;" width="10" x="1460" y="1232.7461"/><rect fill="#FFFFFF" height="805.8082" style="stroke:#000000;stroke-width:1.0;" width="1352.5" x="288.5" y="1099.2161"/><rect fill="#FFFFFF" height="262.9421" style="stroke:#000000;stroke-width:1.0;" width="845" x="786" y="1189.3341"/><rect fill="#FFFFFF" height="265.924" style="stroke:#000000;stroke-width:1.0;" width="366.5" x="786" y="1632.1003"/><rect fill="#FFFFFF" height="138.0999" style="stroke:none;stroke-width:1.0;" width="366.5" x="786" y="1759.9244"/><line style="stroke:#000000;stroke-width:1.0;" x1="28" x2="28" y1="85.0679" y2="1922.0243"/><line style="stroke:#000000;stroke-width:1.0;" x1="154.5" x2="154.5" y1="85.0679" y2="1922.0243"/><line style="stroke:#000000;stroke-width:1.0;" x1="368.5" x2="368.5" y1="85.0679" y2="1922.0243"/><line style="stroke:#000000;stroke-width:1.0;" x1="590" x2="590" y1="85.0679" y2="1922.0243"/><line style="stroke:#000000;stroke-width:1.0;" x1="724" x2="724" y1="85.0679" y2="1922.0243"/><line style="stroke:#000000;stroke-width:1.0;" x1="853" x2="853" y1="654.054" y2="1922.0243"/><line style="stroke:#000000;stroke-width:1.0;" x1="1090.5" x2="1090.5" y1="698.1219" y2="1922.0243"/><line style="stroke:#000000;stroke-width:1.0;" x1="1188.5" x2="1188.5" y1="85.0679" y2="1922.0243"/><line style="stroke:#000000;stroke-width:1.0;" x1="1279.5" x2="1279.5" y1="85.0679" y2="1922.0243"/><line style="stroke:#000000;stroke-width:1.0;" x1="1465" x2="1465" y1="438.456" y2="1922.0243"/><text fill="#000000" font-family="Verdana" font-size="14" lengthAdjust="spacing" textLength="31" x="10" y="80.9659">User</text><ellipse cx="28.5" cy="14" fill="#FFFFFF" rx="8" ry="8" style="stroke:#000000;stroke-width:1.0;"/><path d="M28.5,22 L28.5,49 M15.5,30 L41.5,30 M28.5,49 L15.5,64 M28.5,49 L41.5,64 " fill="none" style="stroke:#000000;stroke-width:1.0;"/><text fill="#000000" font-family="Verdana" font-size="14" lengthAdjust="spacing" textLength="31" x="10" y="1935.9902">User</text><ellipse cx="28.5" cy="1949.0922" fill="#FFFFFF" rx="8" ry="8" style="stroke:#000000;stroke-width:1.0;"/><path d="M28.5,1957.0922 L28.5,1984.0922 M15.5,1965.0922 L41.5,1965.0922 M28.5,1984.0922 L15.5,1999.0922 M28.5,1984.0922 L41.5,1999.0922 " fill="none" style="stroke:#000000;stroke-width:1.0;"/><rect fill="#FFFFFF" height="33.0679" rx="2.5" ry="2.5" style="stroke:#000000;stroke-width:1.0;" width="84" x="112.5" y="51"/><text fill="#000000" font-family="Verdana" font-size="14" lengthAdjust="spacing" textLength="70" x="119.5" y="72.9659">MenuView</text><rect fill="#FFFFFF" height="33.0679" rx="2.5" ry="2.5" style="stroke:#000000;stroke-width:1.0;" width="84" x="112.5" y="1921.0243"/><text fill="#000000" font-family="Verdana" font-size="14" lengthAdjust="spacing" textLength="70" x="119.5" y="1942.9902">MenuView</text><rect fill="#FFFFFF" height="33.0679" rx="2.5" ry="2.5" style="stroke:#000000;stroke-width:1.0;" width="120" x="308.5" y="51"/><text fill="#000000" font-family="Verdana" font-size="14" lengthAdjust="spacing" textLength="106" x="315.5" y="72.9659">GameController</text><rect fill="#FFFFFF" height="33.0679" rx="2.5" ry="2.5" style="stroke:#000000;stroke-width:1.0;" width="120" x="308.5" y="1921.0243"/><text fill="#000000" font-family="Verdana" font-size="14" lengthAdjust="spacing" textLength="106" x="315.5" y="1942.9902">GameController</text><rect fill="#FFFFFF" height="33.0679" rx="2.5" ry="2.5" style="stroke:#000000;stroke-width:1.0;" width="105" x="538" y="51"/><text fill="#000000" font-family="Verdana" font-size="14" lengthAdjust="spacing" textLength="91" x="545" y="72.9659">DifficultyView</text><rect fill="#FFFFFF" height="33.0679" rx="2.5" ry="2.5" style="stroke:#000000;stroke-width:1.0;" width="105" x="538" y="1921.0243"/><text fill="#000000" font-family="Verdana" font-size="14" lengthAdjust="spacing" textLength="91" x="545" y="1942.9902">DifficultyView</text><rect fill="#FFFFFF" height="33.0679" rx="2.5" ry="2.5" style="stroke:#000000;stroke-width:1.0;" width="103" x="673" y="51"/><text fill="#000000" font-family="Verdana" font-size="14" lengthAdjust="spacing" textLength="89" x="680" y="72.9659">PlayerFactory</text><rect fill="#FFFFFF" height="33.0679" rx="2.5" ry="2.5" style="stroke:#000000;stroke-width:1.0;" width="103" x="673" y="1921.0243"/><text fill="#000000" font-family="Verdana" font-size="14" lengthAdjust="spacing" textLength="89" x="680" y="1942.9902">PlayerFactory</text><rect fill="#FFFFFF" height="33.0679" rx="2.5" ry="2.5" style="stroke:#000000;stroke-width:1.0;" width="95" x="806" y="1921.0243"/><text fill="#000000" font-family="Verdana" font-size="14" lengthAdjust="spacing" textLength="81" x="813" y="1942.9902">GameModel</text><rect fill="#FFFFFF" height="33.0679" rx="2.5" ry="2.5" style="stroke:#000000;stroke-width:1.0;" width="84" x="1048.5" y="1921.0243"/><text fill="#000000" font-family="Verdana" font-size="14" lengthAdjust="spacing" textLength="70" x="1055.5" y="1942.9902">GameView</text><rect fill="#FFFFFF" height="33.0679" rx="2.5" ry="2.5" style="stroke:#000000;stroke-width:1.0;" width="53" x="1162.5" y="51"/><text fill="#000000" font-family="Verdana" font-size="14" lengthAdjust="spacing" textLength="39" x="1169.5" y="72.9659">Timer</text><rect fill="#FFFFFF" height="33.0679" rx="2.5" ry="2.5" style="stroke:#000000;stroke-width:1.0;" width="53" x="1162.5" y="1921.0243"/><text fill="#000000" font-family="Verdana" font-size="14" lengthAdjust="spacing" textLength="39" x="1169.5" y="1942.9902">Timer</text><rect fill="#FFFFFF" height="33.0679" rx="2.5" ry="2.5" style="stroke:#000000;stroke-width:1.0;" width="69" x="1245.5" y="51"/><text fill="#000000" font-family="Verdana" font-size="14" lengthAdjust="spacing" textLength="55" x="1252.5" y="72.9659">AIPlayer</text><rect fill="#FFFFFF" height="33.0679" rx="2.5" ry="2.5" style="stroke:#000000;stroke-width:1.0;" width="69" x="1245.5" y="1921.0243"/><text fill="#000000" font-family="Verdana" font-size="14" lengthAdjust="spacing" textLength="55" x="1252.5" y="1942.9902">AIPlayer</text><rect fill="#FFFFFF" height="33.0679" rx="2.5" ry="2.5" style="stroke:#000000;stroke-width:1.0;" width="104" x="1413" y="1921.0243"/><text fill="#000000" font-family="Verdana" font-size="14" lengthAdjust="spacing" textLength="90" x="1420" y="1942.9902">HumanPlayer</text><rect fill="#FFFFFF" height="31.706" style="stroke:#000000;stroke-width:1.0;" width="10" x="149.5" y="118.7739"/><rect fill="#FFFFFF" height="1761.5443" style="stroke:#000000;stroke-width:1.0;" width="10" x="363.5" y="150.4799"/><rect fill="#FFFFFF" height="95.118" style="stroke:#000000;stroke-width:1.0;" width="10" x="585.5" y="226.892"/><rect fill="#FFFFFF" height="75.7739" style="stroke:#000000;stroke-width:1.0;" width="10" x="719.5" y="398.4221"/><rect fill="#FFFFFF" height="63.412" style="stroke:#000000;stroke-width:1.0;" width="10" x="719.5" y="505.902"/><rect fill="#FFFFFF" height="37.706" style="stroke:#000000;stroke-width:1.0;" width="10" x="848.5" y="733.8619"/><rect fill="#FFFFFF" height="203.5301" style="stroke:#000000;stroke-width:1.0;" width="10" x="848.5" y="810.2739"/><rect fill="#FFFFFF" height="730.6902" style="stroke:#000000;stroke-width:1.0;" width="10" x="848.5" y="1174.3341"/><rect fill="#FFFFFF" height="37.706" style="stroke:#000000;stroke-width:1.0;" width="10" x="1085.5" y="976.098"/><rect fill="#FFFFFF" height="37.706" style="stroke:#000000;stroke-width:1.0;" width="10" x="1085.5" y="1572.3943"/><rect fill="#FFFFFF" height="859.5143" style="stroke:#000000;stroke-width:1.0;" width="10" x="1184" y="1052.51"/><rect fill="#FFFFFF" height="121.118" style="stroke:#000000;stroke-width:1.0;" width="10" x="1275" y="1323.1582"/><rect fill="#FFFFFF" height="58.706" style="stroke:#000000;stroke-width:1.0;" width="10" x="1460" y="1232.7461"/><polygon fill="#000000" points="137.5,114.7739,147.5,118.7739,137.5,122.7739,141.5,118.7739" style="stroke:#000000;stroke-width:1.0;"/><line style="stroke:#000000;stroke-width:1.0;" x1="28.5" x2="143.5" y1="118.7739" y2="118.7739"/><text fill="#000000" font-family="Verdana" font-size="13" lengthAdjust="spacing" textLength="102" x="38" y="112.9649">Click "Contre l'IA"</text><polygon fill="#000000" points="351.5,146.4799,361.5,150.4799,351.5,154.4799,355.5,150.4799" style="stroke:#000000;stroke-width:1.0;"/><line style="stroke:#000000;stroke-width:1.0;" x1="154.5" x2="357.5" y1="150.4799" y2="150.4799"/><text fill="#000000" font-family="Verdana" font-size="13" lengthAdjust="spacing" textLength="185" x="166.5" y="144.6709">vsAIListener.actionPerformed()</text><line style="stroke:#000000;stroke-width:1.0;" x1="373.5" x2="415.5" y1="182.186" y2="182.186"/><line style="stroke:#000000;stroke-width:1.0;" x1="415.5" x2="415.5" y1="182.186" y2="195.186"/><line style="stroke:#000000;stroke-width:1.0;" x1="374.5" x2="415.5" y1="195.186" y2="195.186"/><polygon fill="#000000" points="384.5,191.186,374.5,195.186,384.5,199.186,380.5,195.186" style="stroke:#000000;stroke-width:1.0;"/><text fill="#000000" font-family="Verdana" font-size="13" lengthAdjust="spacing" textLength="146" x="380.5" y="176.377">showDifficultySelection()</text><polygon fill="#000000" points="573.5,222.892,583.5,226.892,573.5,230.892,577.5,226.892" style="stroke:#000000;stroke-width:1.0;"/><line style="stroke:#000000;stroke-width:1.0;" x1="373.5" x2="579.5" y1="226.892" y2="226.892"/><text fill="#000000" font-family="Verdana" font-size="13" lengthAdjust="spacing" textLength="129" x="415" y="221.083">showView("difficulty")</text><polygon fill="#000000" points="39.5,254.598,29.5,258.598,39.5,262.598,35.5,258.598" style="stroke:#000000;stroke-width:1.0;"/><line style="stroke:#000000;stroke-width:1.0;stroke-dasharray:2.0,2.0;" x1="33.5" x2="584.5" y1="258.598" y2="258.598"/><text fill="#000000" font-family="Verdana" font-size="13" lengthAdjust="spacing" textLength="146" x="234" y="252.789">Display difficulty options</text><polygon fill="#000000" points="573.5,286.304,583.5,290.304,573.5,294.304,577.5,290.304" style="stroke:#000000;stroke-width:1.0;"/><line style="stroke:#000000;stroke-width:1.0;" x1="28.5" x2="579.5" y1="290.304" y2="290.304"/><text fill="#000000" font-family="Verdana" font-size="13" lengthAdjust="spacing" textLength="90" x="262" y="284.495">Select "Difficile"</text><polygon fill="#000000" points="384.5,318.01,374.5,322.01,384.5,326.01,380.5,322.01" style="stroke:#000000;stroke-width:1.0;"/><line style="stroke:#000000;stroke-width:1.0;" x1="378.5" x2="589.5" y1="322.01" y2="322.01"/><text fill="#000000" font-family="Verdana" font-size="13" lengthAdjust="spacing" textLength="188" x="388" y="316.201">hardListener.actionPerformed()</text><line style="stroke:#000000;stroke-width:1.0;" x1="373.5" x2="415.5" y1="353.716" y2="353.716"/><line style="stroke:#000000;stroke-width:1.0;" x1="415.5" x2="415.5" y1="353.716" y2="366.716"/><line style="stroke:#000000;stroke-width:1.0;" x1="374.5" x2="415.5" y1="366.716" y2="366.716"/><polygon fill="#000000" points="384.5,362.716,374.5,366.716,384.5,370.716,380.5,366.716" style="stroke:#000000;stroke-width:1.0;"/><text fill="#000000" font-family="Verdana" font-size="13" lengthAdjust="spacing" textLength="90" x="380.5" y="347.907">startAIGame(3)</text><polygon fill="#000000" points="707.5,394.4221,717.5,398.4221,707.5,402.4221,711.5,398.4221" style="stroke:#000000;stroke-width:1.0;"/><line style="stroke:#000000;stroke-width:1.0;" x1="373.5" x2="713.5" y1="398.4221" y2="398.4221"/><text fill="#000000" font-family="Verdana" font-size="13" lengthAdjust="spacing" textLength="187" x="453" y="392.6131">createHumanPlayer("Joueur 1")</text><polygon fill="#000000" points="1401,426.1281,1411,430.1281,1401,434.1281,1405,430.1281" style="stroke:#000000;stroke-width:1.0;"/><line style="stroke:#000000;stroke-width:1.0;" x1="729.5" x2="1407" y1="430.1281" y2="430.1281"/><text fill="#000000" font-family="Verdana" font-size="13" lengthAdjust="spacing" textLength="178" x="982.25" y="424.3191">new HumanPlayer("Joueur 1")</text><rect fill="#FFFFFF" height="33.0679" rx="2.5" ry="2.5" style="stroke:#000000;stroke-width:1.0;" width="104" x="1413" y="406.4221"/><text fill="#000000" font-family="Verdana" font-size="14" lengthAdjust="spacing" textLength="90" x="1420" y="428.388">HumanPlayer</text><polygon fill="#000000" points="384.5,470.196,374.5,474.196,384.5,478.196,380.5,474.196" style="stroke:#000000;stroke-width:1.0;"/><line style="stroke:#000000;stroke-width:1.0;stroke-dasharray:2.0,2.0;" x1="378.5" x2="723.5" y1="474.196" y2="474.196"/><text fill="#000000" font-family="Verdana" font-size="13" lengthAdjust="spacing" textLength="85" x="506.5" y="468.387">return player1</text><polygon fill="#000000" points="707.5,501.902,717.5,505.902,707.5,509.902,711.5,505.902" style="stroke:#000000;stroke-width:1.0;"/><line style="stroke:#000000;stroke-width:1.0;" x1="373.5" x2="713.5" y1="505.902" y2="505.902"/><text fill="#000000" font-family="Verdana" font-size="13" lengthAdjust="spacing" textLength="101" x="496" y="500.093">createAIPlayer(3)</text><polygon fill="#000000" points="1268,533.608,1278,537.608,1268,541.608,1272,537.608" style="stroke:#000000;stroke-width:1.0;"/><line style="stroke:#000000;stroke-width:1.0;" x1="729.5" x2="1274" y1="537.608" y2="537.608"/><text fill="#000000" font-family="Verdana" font-size="13" lengthAdjust="spacing" textLength="78" x="965.75" y="531.799">new HardAI()</text><polygon fill="#000000" points="384.5,565.314,374.5,569.314,384.5,573.314,380.5,569.314" style="stroke:#000000;stroke-width:1.0;"/><line style="stroke:#000000;stroke-width:1.0;stroke-dasharray:2.0,2.0;" x1="378.5" x2="723.5" y1="569.314" y2="569.314"/><text fill="#000000" font-family="Verdana" font-size="13" lengthAdjust="spacing" textLength="85" x="506.5" y="563.505">return player2</text><line style="stroke:#000000;stroke-width:1.0;" x1="373.5" x2="415.5" y1="601.0201" y2="601.0201"/><line style="stroke:#000000;stroke-width:1.0;" x1="415.5" x2="415.5" y1="601.0201" y2="614.0201"/><line style="stroke:#000000;stroke-width:1.0;" x1="374.5" x2="415.5" y1="614.0201" y2="614.0201"/><polygon fill="#000000" points="384.5,610.0201,374.5,614.0201,384.5,618.0201,380.5,614.0201" style="stroke:#000000;stroke-width:1.0;"/><text fill="#000000" font-family="Verdana" font-size="13" lengthAdjust="spacing" textLength="165" x="380.5" y="595.2111">startGame(player1, player2)</text><polygon fill="#000000" points="794,641.7261,804,645.7261,794,649.7261,798,645.7261" style="stroke:#000000;stroke-width:1.0;"/><line style="stroke:#000000;stroke-width:1.0;" x1="373.5" x2="800" y1="645.7261" y2="645.7261"/><text fill="#000000" font-family="Verdana" font-size="13" lengthAdjust="spacing" textLength="109" x="535.25" y="639.9171">new GameModel()</text><rect fill="#FFFFFF" height="33.0679" rx="2.5" ry="2.5" style="stroke:#000000;stroke-width:1.0;" width="95" x="806" y="622.0201"/><text fill="#000000" font-family="Verdana" font-size="14" lengthAdjust="spacing" textLength="81" x="813" y="643.986">GameModel</text><polygon fill="#000000" points="1036.5,685.794,1046.5,689.794,1036.5,693.794,1040.5,689.794" style="stroke:#000000;stroke-width:1.0;"/><line style="stroke:#000000;stroke-width:1.0;" x1="373.5" x2="1042.5" y1="689.794" y2="689.794"/><text fill="#000000" font-family="Verdana" font-size="13" lengthAdjust="spacing" textLength="171" x="625.5" y="683.985">new GameView(gameModel)</text><rect fill="#FFFFFF" height="33.0679" rx="2.5" ry="2.5" style="stroke:#000000;stroke-width:1.0;" width="84" x="1048.5" y="666.088"/><text fill="#000000" font-family="Verdana" font-size="14" lengthAdjust="spacing" textLength="70" x="1055.5" y="688.0539">GameView</text><polygon fill="#000000" points="836.5,729.8619,846.5,733.8619,836.5,737.8619,840.5,733.8619" style="stroke:#000000;stroke-width:1.0;"/><line style="stroke:#000000;stroke-width:1.0;" x1="373.5" x2="842.5" y1="733.8619" y2="733.8619"/><text fill="#000000" font-family="Verdana" font-size="13" lengthAdjust="spacing" textLength="148" x="537" y="728.0529">addObserver(gameView)</text><line style="stroke:#000000;stroke-width:1.0;" x1="858.5" x2="900.5" y1="770.5679" y2="770.5679"/><line style="stroke:#000000;stroke-width:1.0;" x1="900.5" x2="900.5" y1="770.5679" y2="783.5679"/><line style="stroke:#000000;stroke-width:1.0;" x1="853.5" x2="900.5" y1="783.5679" y2="783.5679"/><polygon fill="#000000" points="863.5,779.5679,853.5,783.5679,863.5,787.5679,859.5,783.5679" style="stroke:#000000;stroke-width:1.0;"/><text fill="#000000" font-family="Verdana" font-size="13" lengthAdjust="spacing" textLength="155" x="865.5" y="764.7589">observers.add(gameView)</text><polygon fill="#000000" points="836.5,806.2739,846.5,810.2739,836.5,814.2739,840.5,810.2739" style="stroke:#000000;stroke-width:1.0;"/><line style="stroke:#000000;stroke-width:1.0;" x1="373.5" x2="842.5" y1="810.2739" y2="810.2739"/><text fill="#000000" font-family="Verdana" font-size="13" lengthAdjust="spacing" textLength="156" x="533" y="804.4649">initGame(player1, player2)</text><line style="stroke:#000000;stroke-width:1.0;" x1="858.5" x2="900.5" y1="841.98" y2="841.98"/><line style="stroke:#000000;stroke-width:1.0;" x1="900.5" x2="900.5" y1="841.98" y2="854.98"/><line style="stroke:#000000;stroke-width:1.0;" x1="859.5" x2="900.5" y1="854.98" y2="854.98"/><polygon fill="#000000" points="869.5,850.98,859.5,854.98,869.5,858.98,865.5,854.98" style="stroke:#000000;stroke-width:1.0;"/><text fill="#000000" font-family="Verdana" font-size="13" lengthAdjust="spacing" textLength="81" x="865.5" y="836.171">create snakes</text><line style="stroke:#000000;stroke-width:1.0;" x1="858.5" x2="900.5" y1="886.686" y2="886.686"/><line style="stroke:#000000;stroke-width:1.0;" x1="900.5" x2="900.5" y1="886.686" y2="899.686"/><line style="stroke:#000000;stroke-width:1.0;" x1="859.5" x2="900.5" y1="899.686" y2="899.686"/><polygon fill="#000000" points="869.5,895.686,859.5,899.686,869.5,903.686,865.5,899.686" style="stroke:#000000;stroke-width:1.0;"/><text fill="#000000" font-family="Verdana" font-size="13" lengthAdjust="spacing" textLength="123" x="865.5" y="880.877">generateNewApple()</text><line style="stroke:#000000;stroke-width:1.0;" x1="858.5" x2="900.5" y1="931.392" y2="931.392"/><line style="stroke:#000000;stroke-width:1.0;" x1="900.5" x2="900.5" y1="931.392" y2="944.392"/><line style="stroke:#000000;stroke-width:1.0;" x1="859.5" x2="900.5" y1="944.392" y2="944.392"/><polygon fill="#000000" points="869.5,940.392,859.5,944.392,869.5,948.392,865.5,944.392" style="stroke:#000000;stroke-width:1.0;"/><text fill="#000000" font-family="Verdana" font-size="13" lengthAdjust="spacing" textLength="86" x="865.5" y="925.583">running = true</text><polygon fill="#000000" points="1073.5,972.098,1083.5,976.098,1073.5,980.098,1077.5,976.098" style="stroke:#000000;stroke-width:1.0;"/><line style="stroke:#000000;stroke-width:1.0;" x1="858.5" x2="1079.5" y1="976.098" y2="976.098"/><text fill="#000000" font-family="Verdana" font-size="13" lengthAdjust="spacing" textLength="208" x="868" y="970.289">notifyGameStateChange(PLAYING)</text><line style="stroke:#000000;stroke-width:1.0;" x1="1095.5" x2="1137.5" y1="1012.804" y2="1012.804"/><line style="stroke:#000000;stroke-width:1.0;" x1="1137.5" x2="1137.5" y1="1012.804" y2="1025.804"/><line style="stroke:#000000;stroke-width:1.0;" x1="1090.5" x2="1137.5" y1="1025.804" y2="1025.804"/><polygon fill="#000000" points="1100.5,1021.804,1090.5,1025.804,1100.5,1029.804,1096.5,1025.804" style="stroke:#000000;stroke-width:1.0;"/><text fill="#000000" font-family="Verdana" font-size="13" lengthAdjust="spacing" textLength="51" x="1102.5" y="1006.995">repaint()</text><polygon fill="#000000" points="1172,1048.51,1182,1052.51,1172,1056.51,1176,1052.51" style="stroke:#000000;stroke-width:1.0;"/><line style="stroke:#000000;stroke-width:1.0;" x1="373.5" x2="1178" y1="1052.51" y2="1052.51"/><text fill="#000000" font-family="Verdana" font-size="13" lengthAdjust="spacing" textLength="196" x="680.75" y="1046.701">new Timer(100ms, updateAction)</text><polygon fill="#000000" points="1172,1080.2161,1182,1084.2161,1172,1088.2161,1176,1084.2161" style="stroke:#000000;stroke-width:1.0;"/><line style="stroke:#000000;stroke-width:1.0;" x1="373.5" x2="1178" y1="1084.2161" y2="1084.2161"/><text fill="#000000" font-family="Verdana" font-size="13" lengthAdjust="spacing" textLength="36" x="760.75" y="1078.4071">start()</text><path d="M288.5,1099.2161 L361.5,1099.2161 L361.5,1108.9221 L351.5,1118.9221 L288.5,1118.9221 L288.5,1099.2161 " fill="#FFFFFF" style="stroke:#000000;stroke-width:1.0;"/><rect fill="none" height="805.8082" style="stroke:#000000;stroke-width:1.0;" width="1352.5" x="288.5" y="1099.2161"/><text fill="#000000" font-family="Verdana" font-size="13" font-weight="bold" lengthAdjust="spacing" textLength="28" x="303.5" y="1114.1131">loop</text><text fill="#000000" font-family="Verdana" font-size="11" font-weight="bold" lengthAdjust="spacing" textLength="153" x="376.5" y="1112.975">[Every 100ms while running]</text><polygon fill="#000000" points="384.5,1138.6281,374.5,1142.6281,384.5,1146.6281,380.5,1142.6281" style="stroke:#000000;stroke-width:1.0;"/><line style="stroke:#000000;stroke-width:1.0;" x1="378.5" x2="1183" y1="1142.6281" y2="1142.6281"/><text fill="#000000" font-family="Verdana" font-size="13" lengthAdjust="spacing" textLength="109" x="724.25" y="1136.8191">actionPerformed()</text><polygon fill="#000000" points="836.5,1170.3341,846.5,1174.3341,836.5,1178.3341,840.5,1174.3341" style="stroke:#000000;stroke-width:1.0;"/><line style="stroke:#000000;stroke-width:1.0;" x1="373.5" x2="842.5" y1="1174.3341" y2="1174.3341"/><text fill="#000000" font-family="Verdana" font-size="13" lengthAdjust="spacing" textLength="51" x="585.5" y="1168.5251">update()</text><path d="M786,1189.3341 L929,1189.3341 L929,1199.0401 L919,1209.0401 L786,1209.0401 L786,1189.3341 " fill="#FFFFFF" style="stroke:#000000;stroke-width:1.0;"/><rect fill="none" height="262.9421" style="stroke:#000000;stroke-width:1.0;" width="845" x="786" y="1189.3341"/><text fill="#000000" font-family="Verdana" font-size="13" font-weight="bold" lengthAdjust="spacing" textLength="98" x="801" y="1204.2311">Player Updates</text><polygon fill="#000000" points="1448,1228.7461,1458,1232.7461,1448,1236.7461,1452,1232.7461" style="stroke:#000000;stroke-width:1.0;"/><line style="stroke:#000000;stroke-width:1.0;" x1="858.5" x2="1454" y1="1232.7461" y2="1232.7461"/><text fill="#000000" font-family="Verdana" font-size="13" lengthAdjust="spacing" textLength="271" x="1023.75" y="1226.9371">updateDirection(snake1, apple, width, height)</text><line style="stroke:#000000;stroke-width:1.0;" x1="1470" x2="1512" y1="1264.4522" y2="1264.4522"/><line style="stroke:#000000;stroke-width:1.0;" x1="1512" x2="1512" y1="1264.4522" y2="1277.4522"/><line style="stroke:#000000;stroke-width:1.0;" x1="1471" x2="1512" y1="1277.4522" y2="1277.4522"/><polygon fill="#000000" points="1481,1273.4522,1471,1277.4522,1481,1281.4522,1477,1277.4522" style="stroke:#000000;stroke-width:1.0;"/><text fill="#000000" font-family="Verdana" font-size="13" lengthAdjust="spacing" textLength="142" x="1477" y="1258.6432">apply pending direction</text><polygon fill="#000000" points="869.5,1287.4522,859.5,1291.4522,869.5,1295.4522,865.5,1291.4522" style="stroke:#000000;stroke-width:1.0;"/><line style="stroke:#000000;stroke-width:1.0;stroke-dasharray:2.0,2.0;" x1="863.5" x2="1464" y1="1291.4522" y2="1291.4522"/><polygon fill="#000000" points="1263,1319.1582,1273,1323.1582,1263,1327.1582,1267,1323.1582" style="stroke:#000000;stroke-width:1.0;"/><line style="stroke:#000000;stroke-width:1.0;" x1="858.5" x2="1269" y1="1323.1582" y2="1323.1582"/><text fill="#000000" font-family="Verdana" font-size="13" lengthAdjust="spacing" textLength="271" x="931.25" y="1317.3492">updateDirection(snake2, apple, width, height)</text><line style="stroke:#000000;stroke-width:1.0;" x1="1285" x2="1327" y1="1354.8642" y2="1354.8642"/><line style="stroke:#000000;stroke-width:1.0;" x1="1327" x2="1327" y1="1354.8642" y2="1367.8642"/><line style="stroke:#000000;stroke-width:1.0;" x1="1286" x2="1327" y1="1367.8642" y2="1367.8642"/><polygon fill="#000000" points="1296,1363.8642,1286,1367.8642,1296,1371.8642,1292,1367.8642" style="stroke:#000000;stroke-width:1.0;"/><text fill="#000000" font-family="Verdana" font-size="13" lengthAdjust="spacing" textLength="140" x="1292" y="1349.0552">calculateBestDirection()</text><line style="stroke:#000000;stroke-width:1.0;" x1="1285" x2="1327" y1="1399.5702" y2="1399.5702"/><line style="stroke:#000000;stroke-width:1.0;" x1="1327" x2="1327" y1="1399.5702" y2="1412.5702"/><line style="stroke:#000000;stroke-width:1.0;" x1="1286" x2="1327" y1="1412.5702" y2="1412.5702"/><polygon fill="#000000" points="1296,1408.5702,1286,1412.5702,1296,1416.5702,1292,1412.5702" style="stroke:#000000;stroke-width:1.0;"/><text fill="#000000" font-family="Verdana" font-size="13" lengthAdjust="spacing" textLength="161" x="1292" y="1393.7612">findPathToApple() [HardAI]</text><polygon fill="#000000" points="869.5,1440.2762,859.5,1444.2762,869.5,1448.2762,865.5,1444.2762" style="stroke:#000000;stroke-width:1.0;"/><line style="stroke:#000000;stroke-width:1.0;stroke-dasharray:2.0,2.0;" x1="863.5" x2="1279" y1="1444.2762" y2="1444.2762"/><text fill="#000000" font-family="Verdana" font-size="13" lengthAdjust="spacing" textLength="102" x="1018.25" y="1438.4672">set new direction</text><line style="stroke:#000000;stroke-width:1.0;" x1="858.5" x2="900.5" y1="1482.9822" y2="1482.9822"/><line style="stroke:#000000;stroke-width:1.0;" x1="900.5" x2="900.5" y1="1482.9822" y2="1495.9822"/><line style="stroke:#000000;stroke-width:1.0;" x1="859.5" x2="900.5" y1="1495.9822" y2="1495.9822"/><polygon fill="#000000" points="869.5,1491.9822,859.5,1495.9822,869.5,1499.9822,865.5,1495.9822" style="stroke:#000000;stroke-width:1.0;"/><text fill="#000000" font-family="Verdana" font-size="13" lengthAdjust="spacing" textLength="87" x="865.5" y="1477.1732">snake1.move()</text><line style="stroke:#000000;stroke-width:1.0;" x1="858.5" x2="900.5" y1="1527.6883" y2="1527.6883"/><line style="stroke:#000000;stroke-width:1.0;" x1="900.5" x2="900.5" y1="1527.6883" y2="1540.6883"/><line style="stroke:#000000;stroke-width:1.0;" x1="859.5" x2="900.5" y1="1540.6883" y2="1540.6883"/><polygon fill="#000000" points="869.5,1536.6883,859.5,1540.6883,869.5,1544.6883,865.5,1540.6883" style="stroke:#000000;stroke-width:1.0;"/><text fill="#000000" font-family="Verdana" font-size="13" lengthAdjust="spacing" textLength="87" x="865.5" y="1521.8793">snake2.move()</text><polygon fill="#000000" points="1073.5,1568.3943,1083.5,1572.3943,1073.5,1576.3943,1077.5,1572.3943" style="stroke:#000000;stroke-width:1.0;"/><line style="stroke:#000000;stroke-width:1.0;" x1="858.5" x2="1079.5" y1="1572.3943" y2="1572.3943"/><text fill="#000000" font-family="Verdana" font-size="13" lengthAdjust="spacing" textLength="113" x="915.5" y="1566.5853">notifySnakeMove()</text><line style="stroke:#000000;stroke-width:1.0;" x1="1095.5" x2="1137.5" y1="1609.1003" y2="1609.1003"/><line style="stroke:#000000;stroke-width:1.0;" x1="1137.5" x2="1137.5" y1="1609.1003" y2="1622.1003"/><line style="stroke:#000000;stroke-width:1.0;" x1="1090.5" x2="1137.5" y1="1622.1003" y2="1622.1003"/><polygon fill="#000000" points="1100.5,1618.1003,1090.5,1622.1003,1100.5,1626.1003,1096.5,1622.1003" style="stroke:#000000;stroke-width:1.0;"/><text fill="#000000" font-family="Verdana" font-size="13" lengthAdjust="spacing" textLength="51" x="1102.5" y="1603.2913">repaint()</text><path d="M786,1632.1003 L849,1632.1003 L849,1641.8063 L839,1651.8063 L786,1651.8063 L786,1632.1003 " fill="#FFFFFF" style="stroke:#000000;stroke-width:1.0;"/><rect fill="none" height="265.924" style="stroke:#000000;stroke-width:1.0;" width="366.5" x="786" y="1632.1003"/><text fill="#000000" font-family="Verdana" font-size="13" font-weight="bold" lengthAdjust="spacing" textLength="18" x="801" y="1646.9973">alt</text><text fill="#000000" font-family="Verdana" font-size="11" font-weight="bold" lengthAdjust="spacing" textLength="76" x="864" y="1645.8592">[Apple eaten]</text><line style="stroke:#000000;stroke-width:1.0;" x1="858.5" x2="900.5" y1="1675.5123" y2="1675.5123"/><line style="stroke:#000000;stroke-width:1.0;" x1="900.5" x2="900.5" y1="1675.5123" y2="1688.5123"/><line style="stroke:#000000;stroke-width:1.0;" x1="859.5" x2="900.5" y1="1688.5123" y2="1688.5123"/><polygon fill="#000000" points="869.5,1684.5123,859.5,1688.5123,869.5,1692.5123,865.5,1688.5123" style="stroke:#000000;stroke-width:1.0;"/><text fill="#000000" font-family="Verdana" font-size="13" lengthAdjust="spacing" textLength="132" x="865.5" y="1669.7033">checkAppleCollisions()</text><polygon fill="#000000" points="1078.5,1716.2183,1088.5,1720.2183,1078.5,1724.2183,1082.5,1720.2183" style="stroke:#000000;stroke-width:1.0;"/><line style="stroke:#000000;stroke-width:1.0;" x1="858.5" x2="1084.5" y1="1720.2183" y2="1720.2183"/><text fill="#000000" font-family="Verdana" font-size="13" lengthAdjust="spacing" textLength="198" x="875.5" y="1714.4093">notifyAppleEaten(playerNumber)</text><polygon fill="#000000" points="1078.5,1747.9244,1088.5,1751.9244,1078.5,1755.9244,1082.5,1751.9244" style="stroke:#000000;stroke-width:1.0;"/><line style="stroke:#000000;stroke-width:1.0;" x1="858.5" x2="1084.5" y1="1751.9244" y2="1751.9244"/><text fill="#000000" font-family="Verdana" font-size="13" lengthAdjust="spacing" textLength="205" x="872" y="1746.1154">notifyScoreUpdate(score1, score2)</text><line style="stroke:#000000;stroke-width:1.0;stroke-dasharray:2.0,2.0;" x1="786" x2="1152.5" y1="1760.9244" y2="1760.9244"/><text fill="#000000" font-family="Verdana" font-size="11" font-weight="bold" lengthAdjust="spacing" textLength="107" x="791" y="1772.6833">[Collision detected]</text><line style="stroke:#000000;stroke-width:1.0;" x1="858.5" x2="900.5" y1="1800.6123" y2="1800.6123"/><line style="stroke:#000000;stroke-width:1.0;" x1="900.5" x2="900.5" y1="1800.6123" y2="1813.6123"/><line style="stroke:#000000;stroke-width:1.0;" x1="859.5" x2="900.5" y1="1813.6123" y2="1813.6123"/><polygon fill="#000000" points="869.5,1809.6123,859.5,1813.6123,869.5,1817.6123,865.5,1813.6123" style="stroke:#000000;stroke-width:1.0;"/><text fill="#000000" font-family="Verdana" font-size="13" lengthAdjust="spacing" textLength="98" x="865.5" y="1794.8033">checkCollisions()</text><polygon fill="#000000" points="1078.5,1841.3183,1088.5,1845.3183,1078.5,1849.3183,1082.5,1845.3183" style="stroke:#000000;stroke-width:1.0;"/><line style="stroke:#000000;stroke-width:1.0;" x1="858.5" x2="1084.5" y1="1845.3183" y2="1845.3183"/><text fill="#000000" font-family="Verdana" font-size="13" lengthAdjust="spacing" textLength="180" x="884.5" y="1839.5093">notifyCollision(playerNumber)</text><line style="stroke:#000000;stroke-width:1.0;" x1="858.5" x2="900.5" y1="1877.0243" y2="1877.0243"/><line style="stroke:#000000;stroke-width:1.0;" x1="900.5" x2="900.5" y1="1877.0243" y2="1890.0243"/><line style="stroke:#000000;stroke-width:1.0;" x1="859.5" x2="900.5" y1="1890.0243" y2="1890.0243"/><polygon fill="#000000" points="869.5,1886.0243,859.5,1890.0243,869.5,1894.0243,865.5,1890.0243" style="stroke:#000000;stroke-width:1.0;"/><text fill="#000000" font-family="Verdana" font-size="13" lengthAdjust="spacing" textLength="95" x="865.5" y="1871.2153">respawnSnake()</text><!--SRC=[ZLPDR-984BtxL_HoMIDbeadsjjAiv849OJLaaG98gz4SUkp2RiNkzdQtO_7lj_hBRWE9aWC1rwjNLQy-u3TTGGEahIdZYNfXlAMIDaJ1Vntm73QW52qXgrd9IGvSWunG4bGhk0gehr2BFfDIz4JB3fA4vbf8ibSW2LLadw2NPZbhATTajW7U7HZqCsFR7AR65MrW8RYMegv1MiXgCOKisV78ygxMfu5bUSQohUa9v8DDusGHsuVBE1jHGEr2R2wj0_dgZ7p76f_PRch8rYwkjMNh9DcJJtzXXUHFigXP_a9cjZ8WzU_hR6P4OgzKWz40GGXTBH3wghBrTwOqS92t1YFu5kHHo0QAT9uK4FiDxr6a1Dq3YQf4F-hq33LO8lHteEN1WqoLwQmOeBFvo8cg8kuJmlU8NZA5mt8Y8vQ8rf0gLwUbT952ZrWDCqlXiwgeB3vM6eQUbADHvsnjsfB-4MhOFg0bbu3unwwXt8cVpluM7NIItCMbOFiTaamw5ldPfZrk4sH5xiSjSdFeoLlC1XQoaw0xoSqg8UekBWF3NYORniHK4YDTv6mT8gDOsJfz9zJzzL2ZObOldzPDS9e79N3elSF6XnoM8Xr1Xm0wH20xDML0pvEOY1R5Fxzmyr-nmj9Zeq9DrCq05XwfRj4jWaU5eKDCppXxgwutOlXA5ASle693QUOGJK_GPsrRWzcEqIexpXaloHTtqxp5gY0qEvvC4iyQtHSLvIMas-_Pl-kdLPm6QdSOl2IqU6hrTCuHShNKdHVRtfhqxlFdHjsGhYtC-DYzYSBi8X_RTWoHr4Aqv1igUoBMc_GLRcCeAY7ujnk6vN8LZJqItKNsp-DqpMVxKahHjSGDDjbRkB86oxGPTienBPdq1ybs1Pj8JGDkICyANTsG2bXPwVb0C8J41GtFa2wG6kSJQO4Nfc5589z0God3mqZtYFKiPxkDLtE-_t3E-4qGdY5T8CrfZKSKxLz1wP5xVWrxPBpOKbtjX9zJyiDTXvyJT2XHWRR3Sob4LBFF2ZKRcnXDl-lBRIDUGzlFZVTNZEDsF1l8PWJ44syThYt6MOeUwlnhJMpnn2mpFskJs_CAyXUBMU2F1wRCLrEavqMA5lhDiFbRyjGrlq2-u_6S2mbkk5DbtkFWsl_tpWbg1MG8ZgLer1-ADvFzM9u3wlqqxSt2tsMqvrPyJpbfyFJM65DyVdQJMxH8_WS0]--></g></svg>